<svg xmlns="http://www.w3.org/2000/svg" viewBox="0 0 200 200" width="200" height="200">
  <defs>
    <linearGradient id="bg" x1="0%" y1="0%" x2="100%" y2="100%">
      <stop offset="0%" style="stop-color:#0A0A0F"/>
      <stop offset="100%" style="stop-color:#12121A"/>
    </linearGradient>
    <linearGradient id="accent" x1="0%" y1="0%" x2="100%" y2="100%">
      <stop offset="0%" style="stop-color:#F97316"/>
      <stop offset="100%" style="stop-color:#FB923C"/>
    </linearGradient>
  </defs>
  <rect width="200" height="200" rx="40" fill="url(#bg)"/>
  <rect x="4" y="4" width="192" height="192" rx="38" fill="none" stroke="#F97316" stroke-width="2" opacity="0.3"/>
  <!-- Factory/gear icon -->
  <circle cx="100" cy="95" r="28" fill="none" stroke="url(#accent)" stroke-width="4"/>
  <circle cx="100" cy="95" r="12" fill="none" stroke="url(#accent)" stroke-width="4"/>
  <!-- Gear teeth -->
  <line x1="100" y1="63" x2="100" y2="55" stroke="#F97316" stroke-width="6" stroke-linecap="round"/>
  <line x1="100" y1="127" x2="100" y2="135" stroke="#F97316" stroke-width="6" stroke-linecap="round"/>
  <line x1="68" y1="95" x2="60" y2="95" stroke="#F97316" stroke-width="6" stroke-linecap="round"/>
  <line x1="132" y1="95" x2="140" y2="95" stroke="#F97316" stroke-width="6" stroke-linecap="round"/>
  <line x1="80" y1="75" x2="74" y2="69" stroke="#F97316" stroke-width="6" stroke-linecap="round"/>
  <line x1="120" y1="115" x2="126" y2="121" stroke="#F97316" stroke-width="6" stroke-linecap="round"/>
  <line x1="120" y1="75" x2="126" y2="69" stroke="#F97316" stroke-width="6" stroke-linecap="round"/>
  <line x1="80" y1="115" x2="74" y2="121" stroke="#F97316" stroke-width="6" stroke-linecap="round"/>
  <!-- Gold sparkle for AI -->
  <circle cx="148" cy="55" r="8" fill="#FBBE14" opacity="0.9"/>
  <line x1="148" y1="45" x2="148" y2="65" stroke="#FBBE14" stroke-width="2" stroke-linecap="round"/>
  <line x1="138" y1="55" x2="158" y2="55" stroke="#FBBE14" stroke-width="2" stroke-linecap="round"/>
  <!-- Name -->
  <text x="100" y="170" text-anchor="middle" font-family="system-ui, sans-serif" font-size="16" font-weight="700" fill="#F97316" opacity="0.5">FACTORY</text>
</svg>
